<!-- Copyright Alyssa Colon, CC-BY-NC 4.0 -->
<?xml version="1.0" encoding="UTF-8" standalone="no"?>
<svg
   viewBox="0 0 472.31067 319.15067"
   height="319.15067"
   width="472.31067"
   id="svg2"
   version="1.1"><defs
     id="defs6"><clipPath
       id="clipPath30"
       clipPathUnits="userSpaceOnUse"><path
         id="path28"
         d="M 0,239.363 H 354.233 V 0 H 0 Z" /></clipPath></defs><g
     transform="matrix(1.3333333,0,0,-1.3333333,0,319.15067)"
     id="g10"><g
       transform="translate(260.0483,32.6514)"
       id="g12"><path
         id="path14"
         style="fill:#dece5d;fill-opacity:1;fill-rule:nonzero;stroke:none"
         d="M 0,0 48.967,63.417 48.861,181.883 61.922,164.533 62.035,59.089 5.529,-10.526 Z" /></g><g
       transform="translate(276.4038,26.2695)"
       id="g16"><path
         id="path18"
         style="fill:#dece5d;fill-opacity:1;fill-rule:nonzero;stroke:none"
         d="M 0,0 51.383,63.428 51.315,168.13 64.333,150.808 64.447,59.094 7.941,-10.515 Z" /></g><g
       transform="translate(295.6383,21.6612)"
       id="g20"><path
         id="path22"
         style="fill:#dece5d;fill-opacity:1;fill-rule:nonzero;stroke:none"
         d="M 0,0 7.947,-10.516 58.594,51.215 50.658,61.808 Z" /></g><g
       id="g24"><g
         clip-path="url(#clipPath30)"
         id="g26"><g
           transform="translate(77.7344,234.9424)"
           id="g32"><path
             id="path34"
             style="fill:#85142c;fill-opacity:1;fill-rule:nonzero;stroke:none"
             d="m 0,0 c -49.643,-22.186 -22.965,-101.117 -22.965,-101.117 16.16,34.493 50.384,21.072 64.455,14.903 l 5.167,33.501 C 41.139,27.057 0,0 0,0" /></g><g
           transform="translate(175.2378,116.6968)"
           id="g36"><path
             id="path38"
             style="fill:#c1172c;fill-opacity:1;fill-rule:nonzero;stroke:none"
             d="m 0,0 c -15.922,1.436 -27.635,15.191 -26.147,30.702 1.441,15.138 14.907,26.267 30.336,25.49 v 46.125 c 0,0 -34.715,3.436 -43.953,0.726 -9.238,-2.715 -11.082,-33.165 -11.082,-33.165 0,0 -5.815,-32.935 -6.326,-43.914 -0.515,-10.99 15.957,-51.126 23.111,-63.001 7.143,-11.875 4.437,-51.924 9.341,-61.505 4.905,-9.578 28.909,-4.234 28.909,-4.234 V 0.028 C 2.801,-0.047 1.423,-0.13 0,0" /></g><g
           transform="translate(124.3916,186.5752)"
           id="g40"><path
             id="path42"
             style="fill:#ffffff;fill-opacity:1;fill-rule:nonzero;stroke:none"
             d="M 0,0 -5.167,-36.507" /></g><g
           transform="translate(295.6782,161.1514)"
           id="g44"><path
             id="path46"
             style="fill:#dece5d;fill-opacity:1;fill-rule:nonzero;stroke:none"
             d="M 0,0 -15.741,11.555 H -46.118 L -71.376,-6.855 V 5.832 l 25.575,18.413 h 30.368 L 0,12.696 Z" /></g><g
           transform="translate(296.6284,214.5205)"
           id="g48"><path
             id="path50"
             style="fill:#dece5d;fill-opacity:1;fill-rule:nonzero;stroke:none"
             d="M 0,0 -15.747,11.554 H -46.12 L -71.377,-6.858 v 12.69 l 25.582,18.413 H -15.43 L 0,12.692 Z" /></g><g
           transform="translate(295.6782,196.6445)"
           id="g52"><path
             id="path54"
             style="fill:#dece5d;fill-opacity:1;fill-rule:nonzero;stroke:none"
             d="M 0,0 -15.741,11.561 H -46.118 L -71.376,-6.341 V 6.352 l 25.575,17.898 h 30.368 L 0,12.698 Z" /></g><g
           transform="translate(295.6782,179.4917)"
           id="g56"><path
             id="path58"
             style="fill:#dece5d;fill-opacity:1;fill-rule:nonzero;stroke:none"
             d="M 0,0 -15.741,11.558 H -46.118 L -70.905,-5.934 v 12.69 l 25.104,17.489 h 30.368 L 0,12.69 Z" /></g><g
           transform="translate(182.4839,173.8418)"
           id="g60"><path
             id="path62"
             style="fill:#231f20;fill-opacity:1;fill-rule:nonzero;stroke:none"
             d="m 0,0 c -1.51,0 -2.947,-0.223 -4.396,-0.433 13.808,-1.524 24.66,-12.188 26.092,-25.659 h -10.78 c -1.58,2.649 -4.505,4.446 -7.867,4.446 -5.049,0 -9.13,-3.988 -9.13,-8.912 0,-4.908 4.081,-8.883 9.13,-8.883 3.875,0 7.168,2.357 8.496,5.678 h 9.976 C 19.381,-46.425 8.804,-56.256 -4.424,-57.69 c 1.449,-0.212 2.91,-0.434 4.424,-0.434 16.466,0 29.814,12.993 29.814,29.057 C 29.814,-13.022 16.466,0 0,0" /></g><g
           transform="translate(41.5,224.2808)"
           id="g64"><path
             id="path66"
             style="fill:#c1172c;fill-opacity:1;fill-rule:nonzero;stroke:none"
             d="m 0,0 c -76.468,-75.928 -23.851,-127.617 -23.851,-127.617 -39.948,-56.03 89.363,-96.664 89.363,-96.664 C -30.95,-140.81 0,0 0,0" /></g></g></g></g></svg>
