<?xml version="1.0" encoding="UTF-8" standalone="no"?>
<svg
   xmlns:dc="http://purl.org/dc/elements/1.1/"
   xmlns:cc="http://creativecommons.org/ns#"
   xmlns:rdf="http://www.w3.org/1999/02/22-rdf-syntax-ns#"
   xmlns:svg="http://www.w3.org/2000/svg"
   xmlns="http://www.w3.org/2000/svg"
   viewBox="0 0 472.30933 319.14932"
   height="319.14932"
   width="472.30933"
   xml:space="preserve"
   id="svg2"
   version="1.1"><metadata
     id="metadata8"><rdf:RDF><cc:Work
         rdf:about=""><dc:format>image/svg+xml</dc:format><dc:type
           rdf:resource="http://purl.org/dc/dcmitype/StillImage" /></cc:Work></rdf:RDF></metadata><defs
     id="defs6"><clipPath
       id="clipPath30"
       clipPathUnits="userSpaceOnUse"><path
         id="path28"
         d="M 0,239.362 H 354.232 V 0 H 0 Z" /></clipPath></defs><g
     transform="matrix(1.3333333,0,0,-1.3333333,0,319.14933)"
     id="g10"><g
       transform="translate(260.0488,32.6514)"
       id="g12"><path
         id="path14"
         style="fill:#ffffff;fill-opacity:1;fill-rule:nonzero;stroke:none"
         d="M 0,0 48.967,63.417 48.861,181.883 61.922,164.533 62.035,59.089 5.529,-10.526 Z" /></g><g
       transform="translate(276.4043,26.2695)"
       id="g16"><path
         id="path18"
         style="fill:#ffffff;fill-opacity:1;fill-rule:nonzero;stroke:none"
         d="M 0,0 51.383,63.428 51.314,168.13 64.332,150.808 64.447,59.094 7.941,-10.515 Z" /></g><g
       transform="translate(295.6383,21.6612)"
       id="g20"><path
         id="path22"
         style="fill:#ffffff;fill-opacity:1;fill-rule:nonzero;stroke:none"
         d="M 0,0 7.948,-10.516 58.594,51.215 50.658,61.808 Z" /></g><g
       id="g24"><g
         clip-path="url(#clipPath30)"
         id="g26"><g
           transform="translate(77.7344,234.9424)"
           id="g32"><path
             id="path34"
             style="fill:#ffffff;fill-opacity:1;fill-rule:nonzero;stroke:none"
             d="m 0,0 c -49.643,-22.187 -22.965,-101.117 -22.965,-101.117 16.16,34.493 50.385,21.072 64.455,14.903 l 5.167,33.501 C 41.139,27.057 0,0 0,0" /></g><g
           transform="translate(175.2383,116.6973)"
           id="g36"><path
             id="path38"
             style="fill:#ffffff;fill-opacity:1;fill-rule:nonzero;stroke:none"
             d="m 0,0 c -15.922,1.436 -27.635,15.191 -26.148,30.701 1.441,15.139 14.908,26.268 30.337,25.49 v 46.125 c 0,0 -34.716,3.436 -43.954,0.727 -9.238,-2.716 -11.082,-33.165 -11.082,-33.165 0,0 -5.814,-32.936 -6.326,-43.915 -0.515,-10.989 15.958,-51.125 23.112,-63 7.142,-11.875 4.436,-51.925 9.34,-61.505 4.905,-9.578 28.91,-4.234 28.91,-4.234 V 0.027 C 2.801,-0.048 1.422,-0.131 0,0" /></g><g
           transform="translate(124.3916,186.5752)"
           id="g40"><path
             id="path42"
             style="fill:#ffffff;fill-opacity:1;fill-rule:nonzero;stroke:none"
             d="M 0,0 -5.167,-36.507" /></g><g
           transform="translate(295.6777,161.1514)"
           id="g44"><path
             id="path46"
             style="fill:#ffffff;fill-opacity:1;fill-rule:nonzero;stroke:none"
             d="M 0,0 -15.74,11.556 H -46.117 L -71.375,-6.854 V 5.831 l 25.574,18.414 h 30.369 L 0,12.696 Z" /></g><g
           transform="translate(296.6289,214.5205)"
           id="g48"><path
             id="path50"
             style="fill:#ffffff;fill-opacity:1;fill-rule:nonzero;stroke:none"
             d="M 0,0 -15.748,11.554 H -46.121 L -71.377,-6.858 V 5.831 l 25.582,18.414 H -15.43 L 0,12.692 Z" /></g><g
           transform="translate(295.6777,196.6445)"
           id="g52"><path
             id="path54"
             style="fill:#ffffff;fill-opacity:1;fill-rule:nonzero;stroke:none"
             d="M 0,0 -15.74,11.561 H -46.117 L -71.375,-6.342 V 6.352 l 25.574,17.898 h 30.369 L 0,12.698 Z" /></g><g
           transform="translate(295.6777,179.4922)"
           id="g56"><path
             id="path58"
             style="fill:#ffffff;fill-opacity:1;fill-rule:nonzero;stroke:none"
             d="M 0,0 -15.74,11.557 H -46.117 L -70.904,-5.935 V 6.756 l 25.103,17.488 h 30.369 L 0,12.689 Z" /></g><g
           transform="translate(182.4844,173.8418)"
           id="g60"><path
             id="path62"
             style="fill:#ffffff;fill-opacity:1;fill-rule:nonzero;stroke:none"
             d="M 0,0 C -1.51,0 -2.947,-0.223 -4.396,-0.433 9.412,-1.957 20.264,-12.621 21.695,-26.092 H 10.916 c -1.58,2.649 -4.506,4.446 -7.867,4.446 -5.049,0 -9.13,-3.988 -9.13,-8.912 0,-4.908 4.081,-8.883 9.13,-8.883 3.875,0 7.168,2.357 8.496,5.678 h 9.976 c -2.14,-12.663 -12.718,-22.493 -25.946,-23.926 1.45,-0.213 2.911,-0.435 4.425,-0.435 16.465,0 29.814,12.993 29.814,29.058 C 29.814,-13.021 16.465,0 0,0" /></g><g
           transform="translate(41.5,224.2812)"
           id="g64"><path
             id="path66"
             style="fill:#ffffff;fill-opacity:1;fill-rule:nonzero;stroke:none"
             d="m 0,0 c -76.468,-75.928 -23.852,-127.617 -23.852,-127.617 -39.947,-56.031 89.364,-96.664 89.364,-96.664 C -30.95,-140.811 0,0 0,0" /></g></g></g></g></svg>