<!-- Copyright Alyssa Colon, CC-BY-NC 4.0 -->
<?xml version="1.0" encoding="UTF-8" standalone="no"?>
<svg
   viewBox="0 0 465.60266 322.81067"
   height="322.81067"
   width="465.60266"
   xml:space="preserve"
   id="svg2"
   version="1.1"><defs
     id="defs6"><clipPath
       id="clipPath30"
       clipPathUnits="userSpaceOnUse"><path
         id="path28"
         d="M 0,242.108 H 349.202 V 0 H 0 Z" /></clipPath></defs><g
     transform="matrix(1.3333333,0,0,-1.3333333,0,322.81067)"
     id="g10"><g
       transform="translate(256.3555,33.0273)"
       id="g12"><path
         id="path14"
         style="fill:currentColor;fill-opacity:1;fill-rule:nonzero;stroke:none"
         d="M 0,0 48.271,64.145 48.167,183.968 61.042,166.419 61.154,59.766 5.451,-10.646 Z" /></g><g
       transform="translate(272.4775,26.5713)"
       id="g16"><path
         id="path18"
         style="fill:currentColor;fill-opacity:1;fill-rule:nonzero;stroke:none"
         d="M 0,0 50.654,64.156 50.587,170.058 63.419,152.537 63.532,59.772 7.829,-10.635 Z" /></g><g
       transform="translate(291.4389,21.9105)"
       id="g20"><path
         id="path22"
         style="fill:currentColor;fill-opacity:1;fill-rule:nonzero;stroke:none"
         d="M 0,0 7.835,-10.637 57.763,51.802 49.94,62.517 Z" /></g><g
       id="g24"><g
         clip-path="url(#clipPath30)"
         id="g26"><g
           transform="translate(76.6304,237.6367)"
           id="g32"><path
             id="path34"
             style="fill:currentColor;fill-opacity:1;fill-rule:nonzero;stroke:none"
             d="m 0,0 c -48.938,-22.439 -22.64,-102.277 -22.64,-102.277 15.931,34.89 49.67,21.314 63.541,15.076 l 5.093,33.885 C 40.555,27.367 0,0 0,0" /></g><g
           transform="translate(172.75,118.0361)"
           id="g36"><path
             id="path38"
             style="fill:currentColor;fill-opacity:1;fill-rule:nonzero;stroke:none"
             d="m 0,0 c -15.697,1.452 -27.244,15.365 -25.777,31.054 1.421,15.312 14.695,26.568 29.905,25.783 v 46.652 c 0,0 -34.222,3.477 -43.329,0.736 -9.107,-2.747 -10.924,-33.545 -10.924,-33.545 0,0 -5.733,-33.314 -6.236,-44.418 -0.507,-11.116 15.731,-51.713 22.783,-63.724 7.041,-12.011 4.373,-52.519 9.207,-62.209 4.835,-9.689 28.499,-4.283 28.499,-4.283 V 0.028 C 2.761,-0.048 1.401,-0.132 0,0" /></g><g
           transform="translate(122.6245,188.7158)"
           id="g40"><path
             id="path42"
             style="fill:currentColor;fill-opacity:1;fill-rule:nonzero;stroke:none"
             d="M 0,0 -5.093,-36.927" /></g><g
           transform="translate(291.4785,163)"
           id="g44"><path
             id="path46"
             style="fill:currentColor;fill-opacity:1;fill-rule:nonzero;stroke:none"
             d="m 0,0 -15.517,11.688 h -29.945 l -24.9,-18.622 V 5.898 l 25.212,18.625 h 29.937 L 0,12.842 Z" /></g><g
           transform="translate(292.4155,216.9814)"
           id="g48"><path
             id="path50"
             style="fill:currentColor;fill-opacity:1;fill-rule:nonzero;stroke:none"
             d="m 0,0 -15.522,11.687 h -29.943 l -24.9,-18.624 V 5.898 l 25.22,18.624 H -15.21 L 0,12.838 Z" /></g><g
           transform="translate(291.4785,198.9004)"
           id="g52"><path
             id="path54"
             style="fill:currentColor;fill-opacity:1;fill-rule:nonzero;stroke:none"
             d="m 0,0 -15.517,11.693 h -29.945 l -24.9,-18.107 V 6.425 l 25.212,18.102 h 29.937 L 0,12.844 Z" /></g><g
           transform="translate(291.4785,181.5508)"
           id="g56"><path
             id="path58"
             style="fill:currentColor;fill-opacity:1;fill-rule:nonzero;stroke:none"
             d="M 0,0 -15.517,11.69 H -45.462 L -69.897,-6.002 V 6.833 l 24.747,17.69 h 29.937 L 0,12.836 Z" /></g><g
           transform="translate(179.8926,175.8359)"
           id="g60"><path
             id="path62"
             style="fill:currentColor;fill-opacity:1;fill-rule:nonzero;stroke:none"
             d="M 0,0 C -1.489,0 -2.907,-0.226 -4.334,-0.437 9.278,-1.979 19.975,-12.766 21.387,-26.391 H 10.761 c -1.559,2.679 -4.441,4.496 -7.756,4.496 -4.978,0 -8.999,-4.032 -8.999,-9.013 0,-4.964 4.021,-8.986 8.999,-8.986 3.819,0 7.067,2.384 8.375,5.744 h 9.835 c -2.11,-12.807 -12.536,-22.752 -25.577,-24.202 1.429,-0.213 2.87,-0.439 4.362,-0.439 16.232,0 29.391,13.143 29.391,29.392 C 29.391,-13.17 16.232,0 0,0" /></g><g
           transform="translate(40.9106,226.8535)"
           id="g64"><path
             id="path66"
             style="fill:currentColor;fill-opacity:1;fill-rule:nonzero;stroke:none"
             d="m 0,0 c -75.382,-76.798 -23.512,-129.079 -23.512,-129.079 -39.381,-56.674 88.094,-97.775 88.094,-97.775 C -30.511,-142.424 0,0 0,0" /></g></g></g></g></svg>
