<svg width="200" height="200" viewBox="0 0 200 200" fill="none" xmlns="http://www.w3.org/2000/svg">
<g clip-path="url(#clip0_2_0)">
<path d="M10 30C10 18.9543 18.9543 10 30 10H170C181.046 10 190 18.9543 190 30V170C190 181.046 181.046 190 170 190H30C18.9543 190 10 181.046 10 170V30Z" stroke="currentColor" stroke-width="20" stroke-linecap="round" stroke-linejoin="round"/>
<path d="M83.2585 130.174V127.747C83.3061 119.42 84.0437 112.782 85.4712 107.833C86.9464 102.884 89.0877 98.8867 91.8952 95.8413C94.7028 92.7958 98.0813 90.0359 102.031 87.5614C104.981 85.658 107.622 83.6832 109.954 81.6371C112.286 79.5909 114.141 77.3306 115.521 74.8562C116.901 72.3342 117.591 69.5266 117.591 66.4336C117.591 63.1502 116.806 60.2713 115.236 57.7969C113.665 55.3224 111.548 53.419 108.883 52.0866C106.266 50.7543 103.363 50.0881 100.175 50.0881C97.082 50.0881 94.1555 50.778 91.3956 52.158C88.6357 53.4904 86.3754 55.489 84.6147 58.1538C82.8541 60.771 81.9023 64.0305 81.7596 67.9325H52.6374C52.8754 58.4155 55.1594 50.5639 59.4897 44.3778C63.82 38.1442 69.554 33.5046 76.6918 30.4592C83.8295 27.3661 91.7049 25.8196 100.318 25.8196C109.787 25.8196 118.162 27.3899 125.443 30.5305C132.723 33.6236 138.434 38.1204 142.574 44.021C146.713 49.9215 148.783 57.0355 148.783 65.3629C148.783 70.9304 147.855 75.8793 146 80.2095C144.191 84.4922 141.646 88.299 138.362 91.63C135.079 94.9133 131.201 97.8874 126.728 100.552C122.968 102.789 119.875 105.12 117.449 107.547C115.069 109.974 113.285 112.782 112.095 115.97C110.953 119.158 110.358 123.084 110.311 127.747V130.174H83.2585ZM97.3913 175.856C92.6328 175.856 88.5643 174.19 85.1857 170.859C81.8548 167.481 80.2131 163.436 80.2607 158.725C80.2131 154.062 81.8548 150.065 85.1857 146.734C88.5643 143.403 92.6328 141.737 97.3913 141.737C101.912 141.737 105.885 143.403 109.311 146.734C112.738 150.065 114.474 154.062 114.522 158.725C114.474 161.866 113.642 164.745 112.024 167.362C110.453 169.931 108.384 172.001 105.814 173.572C103.244 175.094 100.437 175.856 97.3913 175.856Z" fill="currentColor"/>
</g>
<defs>
<clipPath id="clip0_2_0">
<rect width="200" height="200" fill="currentColor"/>
</clipPath>
</defs>
</svg>
