<svg width="200" height="200" viewBox="0 0 200 200" fill="none" xmlns="http://www.w3.org/2000/svg">
<path d="M10 30C10 18.9543 18.9543 10 30 10H170C181.046 10 190 18.9543 190 30V170C190 181.046 181.046 190 170 190H30C18.9543 190 10 181.046 10 170V30Z" stroke="currentColor" stroke-width="20" stroke-linecap="round" stroke-linejoin="round"/>
<circle r="21" transform="matrix(1 0 0 -1 50 100)" fill="currentColor"/>
<circle r="21" transform="matrix(1 0 0 -1 150 100)" fill="currentColor"/>
<circle r="21" transform="matrix(1 0 0 -1 150 151)" fill="currentColor"/>
<circle r="21" transform="matrix(1 0 0 -1 150 49)" fill="currentColor"/>
<circle r="21" transform="matrix(1 0 0 -1 50 151)" fill="currentColor"/>
<circle r="21" transform="matrix(1 0 0 -1 50 49)" fill="currentColor"/>
</svg>
